<svg width="60" height="19" viewBox="0 0 60 19" fill="none" xmlns="http://www.w3.org/2000/svg">
<path d="M0.584 1.256H8.594V2.66H2.096V6.656H8.162V8.06H2.096V12.596H8.918V14H0.584V1.256ZM13.1799 9.464L10.1559 5.576H11.9919L14.2239 8.6L16.3299 5.576H18.0399L15.1419 9.464L18.6159 14H16.7619L14.0979 10.364L11.4699 14H9.72392L13.1799 9.464ZM19.9299 5.576H21.3339V6.8H21.3699C21.7539 6.344 22.1979 5.99 22.7019 5.738C23.2179 5.486 23.7819 5.36 24.3939 5.36C25.0539 5.36 25.6539 5.474 26.1939 5.702C26.7459 5.918 27.2139 6.224 27.5979 6.62C27.9819 7.016 28.2819 7.484 28.4979 8.024C28.7139 8.564 28.8219 9.152 28.8219 9.788C28.8219 10.424 28.7139 11.012 28.4979 11.552C28.2819 12.092 27.9819 12.56 27.5979 12.956C27.2259 13.352 26.7819 13.664 26.2659 13.892C25.7499 14.108 25.1979 14.216 24.6099 14.216C23.8539 14.216 23.1879 14.054 22.6119 13.73C22.0479 13.394 21.6339 12.986 21.3699 12.506H21.3339V18.104H19.9299V5.576ZM21.3339 9.788C21.3339 10.232 21.3999 10.646 21.5319 11.03C21.6759 11.402 21.8799 11.732 22.1439 12.02C22.4079 12.296 22.7199 12.518 23.0799 12.686C23.4519 12.842 23.8659 12.92 24.3219 12.92C24.7779 12.92 25.1859 12.842 25.5459 12.686C25.9179 12.518 26.2359 12.296 26.4999 12.02C26.7639 11.732 26.9619 11.402 27.0939 11.03C27.2379 10.646 27.3099 10.232 27.3099 9.788C27.3099 9.344 27.2379 8.936 27.0939 8.564C26.9619 8.18 26.7639 7.85 26.4999 7.574C26.2359 7.286 25.9179 7.064 25.5459 6.908C25.1859 6.74 24.7779 6.656 24.3219 6.656C23.8659 6.656 23.4519 6.74 23.0799 6.908C22.7199 7.064 22.4079 7.286 22.1439 7.574C21.8799 7.85 21.6759 8.18 21.5319 8.564C21.3999 8.936 21.3339 9.344 21.3339 9.788ZM31.1318 0.391999H32.5358V14H31.1318V0.391999ZM34.844 9.788C34.844 9.128 34.958 8.528 35.186 7.988C35.414 7.448 35.726 6.986 36.122 6.602C36.518 6.206 36.992 5.9 37.544 5.684C38.096 5.468 38.696 5.36 39.344 5.36C39.992 5.36 40.592 5.468 41.144 5.684C41.696 5.9 42.17 6.206 42.566 6.602C42.962 6.986 43.274 7.448 43.502 7.988C43.73 8.528 43.844 9.128 43.844 9.788C43.844 10.448 43.73 11.048 43.502 11.588C43.274 12.128 42.962 12.596 42.566 12.992C42.17 13.376 41.696 13.676 41.144 13.892C40.592 14.108 39.992 14.216 39.344 14.216C38.696 14.216 38.096 14.108 37.544 13.892C36.992 13.676 36.518 13.376 36.122 12.992C35.726 12.596 35.414 12.128 35.186 11.588C34.958 11.048 34.844 10.448 34.844 9.788ZM36.356 9.788C36.356 10.232 36.422 10.646 36.554 11.03C36.698 11.402 36.902 11.732 37.166 12.02C37.43 12.296 37.742 12.518 38.102 12.686C38.474 12.842 38.888 12.92 39.344 12.92C39.8 12.92 40.208 12.842 40.568 12.686C40.94 12.518 41.258 12.296 41.522 12.02C41.786 11.732 41.984 11.402 42.116 11.03C42.26 10.646 42.332 10.232 42.332 9.788C42.332 9.344 42.26 8.936 42.116 8.564C41.984 8.18 41.786 7.85 41.522 7.574C41.258 7.286 40.94 7.064 40.568 6.908C40.208 6.74 39.8 6.656 39.344 6.656C38.888 6.656 38.474 6.74 38.102 6.908C37.742 7.064 37.43 7.286 37.166 7.574C36.902 7.85 36.698 8.18 36.554 8.564C36.422 8.936 36.356 9.344 36.356 9.788ZM46.0175 7.574C46.0175 7.19 46.0055 6.83 45.9815 6.494C45.9575 6.158 45.9455 5.852 45.9455 5.576H47.2775C47.2775 5.804 47.2835 6.032 47.2955 6.26C47.3075 6.488 47.3135 6.722 47.3135 6.962H47.3495C47.4455 6.758 47.5775 6.56 47.7455 6.368C47.9255 6.176 48.1355 6.008 48.3755 5.864C48.6155 5.708 48.8855 5.588 49.1855 5.504C49.4855 5.408 49.8095 5.36 50.1575 5.36C50.2535 5.36 50.3495 5.366 50.4455 5.378C50.5415 5.39 50.6375 5.414 50.7335 5.45L50.6435 6.872C50.4035 6.8 50.1515 6.764 49.8875 6.764C49.0235 6.764 48.3935 7.046 47.9975 7.61C47.6135 8.162 47.4215 8.924 47.4215 9.896V14H46.0175V7.574ZM59.5533 12.47C59.0493 13.118 58.4973 13.574 57.8973 13.838C57.2973 14.09 56.6013 14.216 55.8093 14.216C55.1493 14.216 54.5553 14.102 54.0273 13.874C53.4993 13.634 53.0493 13.316 52.6773 12.92C52.3173 12.524 52.0353 12.056 51.8313 11.516C51.6393 10.976 51.5433 10.4 51.5433 9.788C51.5433 9.14 51.6513 8.546 51.8673 8.006C52.0833 7.454 52.3833 6.986 52.7673 6.602C53.1513 6.206 53.6073 5.9 54.1353 5.684C54.6633 5.468 55.2393 5.36 55.8633 5.36C56.4513 5.36 56.9913 5.462 57.4833 5.666C57.9753 5.858 58.3953 6.146 58.7433 6.53C59.1033 6.902 59.3793 7.364 59.5713 7.916C59.7633 8.456 59.8593 9.074 59.8593 9.77V10.22H53.0553C53.0793 10.58 53.1633 10.928 53.3073 11.264C53.4633 11.588 53.6613 11.876 53.9013 12.128C54.1413 12.368 54.4233 12.56 54.7473 12.704C55.0713 12.848 55.4253 12.92 55.8093 12.92C56.4213 12.92 56.9373 12.812 57.3573 12.596C57.7773 12.38 58.1553 12.062 58.4913 11.642L59.5533 12.47ZM58.3473 9.032C58.3233 8.312 58.0893 7.736 57.6453 7.304C57.2013 6.872 56.5893 6.656 55.8093 6.656C55.0293 6.656 54.3993 6.872 53.9193 7.304C53.4393 7.736 53.1513 8.312 53.0553 9.032H58.3473Z" fill="white"/>
</svg>
